<?xml version="1.0" encoding="UTF-8"?>
<svg version="1.1" viewBox="0 0 2048 728" width="1280" height="1280" xmlns="http://www.w3.org/2000/svg">
<path transform="translate(147,94)" d="m0 0h481l13 4 10 6 10 9 7 9 5 12 2 10v474l-2 11-7 14-8 10-11 8-11 5-16 3h-466l-15-3-14-7-10-9-7-9-5-11-3-13v-472l4-16 6-11 11-12 11-7 11-4zm51 158v260h162v-38l-117-1-1-221zm189 0v260h43l1-1v-97h68l17-3 8-2 15-6 13-9 10-10 8-13 4-11 2-8 1-10v-17l-1-11-5-15-6-11-9-11-9-8-15-9-15-5-9-2-9-1z" fill="#63AA07"/>
<path transform="translate(1151,319)" d="m0 0h17l12 3 12 6 11 9v-15h25v156l-3 15-4 10-8 11-10 9-12 6-15 4h-26l-17-5-15-8-8-7-4-6 7-8 6-7 4 2 7 7 11 6 9 3 6 1h11l13-3 9-6h2l2-4 4-6 3-11 1-20-8 6-14 7-16 3h-9l-14-3-12-6-10-9-8-11-5-10-4-13-2-11-1-14 1-19 3-16 6-15 7-10 8-9 11-7 12-4zm6 23-11 4-10 9-7 14-3 12-1 10v17l3 16 4 10 6 9 7 6 9 4 5 1h13l13-4 9-7 6-8 1-2v-71l-6-8-8-7-9-4-5-1z" fill="#63AA07"/>
<path transform="translate(1287,269)" d="m0 0h64l18 2 13 4 12 6 12 11 7 11 4 10 2 9v20l-4 16-6 11-8 9-10 7-16 6-18 3-58 1-1 79h-27v-204zm11 23v80h55l15-3 11-6 7-8 4-9 1-4v-19l-4-11-4-6-9-8-12-5-4-1z" fill="#63AA07"/>
<path transform="translate(1814,319)" d="m0 0h17l16 4 11 6 10 9 6 8 6 13 3 11 2 22v12l-2 1h-102l4 19 7 14 8 8 11 6 9 2h13l12-3 9-5 10-9 3-2 15 11-1 4-9 10-7 6-14 7-12 3-10 1h-10l-13-2-12-4-12-7-10-9-9-13-6-16-2-10v-33l4-17 8-16 6-8 5-6 11-8 12-6zm2 22-13 4-11 10-7 14-3 11v3h76l-1-13-5-13-9-10-8-4-7-2z" fill="#63AA07"/>
<path transform="translate(993,319)" d="m0 0h18l14 3 10 4 13 9 10 11 8 14 4 13 2 11v29l-4 17-6 14-9 12-10 9-16 8-11 3-9 1h-10l-13-2-13-5-10-6-8-7-9-12-6-12-4-15-1-7v-26l3-15 5-13 7-12 10-11 14-9 11-4zm4 22-12 3-11 8-7 10-5 13-2 9-1 20 2 14 4 12 6 10 4 5 9 6 7 3 6 1h12l10-3 10-6 7-8 5-10 4-16v-29l-3-12-7-14-5-6-11-7-11-3z" fill="#63AA07"/>
<path transform="translate(1501,319)" d="m0 0h18l16 4 14 7 10 9 7 8 6 10 6 18 2 17v14l-3 19-6 16-7 11-11 11-11 7-14 5-15 2-17-1-16-5-10-6-10-9-8-10-6-12-4-13-2-12v-21l3-17 5-13 6-11 9-10 8-7 16-8zm3 22-11 3-9 6-8 9-5 11-3 11-1 8v20l3 15 8 16 8 8 10 5 8 2h12l13-4 8-6 7-8 6-13 3-15v-23l-3-14-7-14-8-9-8-5-11-3z" fill="#63AA07"/>
<path transform="translate(1658,319)" d="m0 0h19l14 3 10 4 10 7 7 7 7 14 2 12-1 1h-26l-4-11-7-8-8-4-8-2h-12l-9 2-8 5-5 8-1 7 3 9 9 6 42 12 12 5 11 7 7 7 5 11 1 6v10l-4 13-8 11-8 6-10 5-15 4-10 1h-10l-14-2-12-4-11-6-9-8-7-11-4-11v-9h26l4 13 7 8 10 5 10 2h13l11-3 7-4 5-6 1-3v-10l-4-8-7-5-15-5-24-6-16-6-13-9-6-8-4-10v-14l4-11 8-11 9-7 10-5z" fill="#63AA07"/>
<path transform="translate(431,289)" d="m0 0h60l11 2 10 4 6 4 8 8 6 12 1 5v19l-3 11-7 10-8 6-13 5-6 1h-65z" fill="#63AA07"/>
<path transform="translate(793,269)" d="m0 0h15l8 1v181h96l1 1v22h-124l-1-1v-203z" fill="#66AC0D"/>
</svg>
